<svg xmlns="http://www.w3.org/2000/svg" xmlns:xlink="http://www.w3.org/1999/xlink" width="381" height="371" viewBox="0 0 381 371"><defs><path id="1j4za" d="M889.3 3771.22a86.53 86.53 0 0 0-3.9-92.64l68.77-53.34c42.17 57.67 43.5 133.29 8.48 191.38z"/><path id="1j4zb" d="M880.72 3670.66c-.4-.54-.77-1.09-1.18-1.62a96 96 0 1 0 5.74 109.44l56.87 35.47a162.66 162.66 0 0 1-38.57 42.73c-71.14 55.17-173.53 42.23-228.7-28.9-55.17-71.14-42.23-173.53 28.9-228.7 71.14-55.17 173.53-42.23 228.7 28.9l1.2 1.6z"/></defs><g><g transform="translate(-618 -3542)"><use fill="#d75a4a" xlink:href="#1j4za"/></g><g transform="translate(-618 -3542)"><use fill="red" xlink:href="#1j4zb"/></g></g></svg>