<svg id="Слой_1" data-name="Слой 1" xmlns="http://www.w3.org/2000/svg" viewBox="0 0 167.64 174.32"><defs><style>.cls-1{fill:#fff;}</style></defs><title>sparta_logo_head</title><path class="cls-1" d="M149.57,90.85c3.16.12,6.32.24,9.48.39a11,11,0,0,1,1.59.33c1.22.24,1.92-.17,2.19-1.3A1.83,1.83,0,0,0,161.55,88a15.22,15.22,0,0,0-2.52-.41,144.77,144.77,0,0,0-36.37,1.35c-9.2,1.45-18.31,3.33-27.38,5.42a14.62,14.62,0,0,1-1.61.27A1.88,1.88,0,0,1,92,91.78,19.9,19.9,0,0,1,93.33,90c3.35-3.94,6.65-7.92,10.08-11.79a9.13,9.13,0,0,1,6.61-3.4c4-.18,8-.39,11.93-.78a179.53,179.53,0,0,1,25.72-.21c6.31.28,12.63.9,18.88,1.79a67.77,67.77,0,0,1,10.72,2.91,9.84,9.84,0,0,1,3.2,2,10.64,10.64,0,0,0,6.59,2.74c2.18.11,4.35.49,6.52.78,4.63.64,8.38,3.07,11.89,5.95.74.61,1.42,1.3,2.11,2a22.4,22.4,0,0,0,9.95,5.48c3,.85,5.93,1.78,8.8,2.9,3.22,1.26,6.35,2.77,9.52,4.16,1.11.49,2.26.91,3.35,1.44,3.18,1.5,4.05,6,1.42,8.25a6.78,6.78,0,0,0-2.31,5.09,23.76,23.76,0,0,1-.27,2.54c-.29,1.42-.85,1.94-2.26,1.79a33.69,33.69,0,0,1-5.36-1,111.12,111.12,0,0,0-12.75-3.08A64.47,64.47,0,0,0,192.32,121c-6.83,1.68-13.4,4.08-19.22,8.13A54.14,54.14,0,0,0,153,154.51,70.86,70.86,0,0,0,149.36,165c-2.53,11.53-2.16,23,2.42,33.87,5.68,13.54,15.56,22.74,30,26.61,1.58.42,3.19.68,4.79,1s3.3,2.47,3.58,4.25a31.54,31.54,0,0,0,2.69,8.62,21.36,21.36,0,0,0,2.09,2.74,15.57,15.57,0,0,1,1.83,2.88,1.52,1.52,0,0,1-1,2.3,8,8,0,0,1-3.36.5c-5.49-.71-11-1.56-16.43-2.4a16.57,16.57,0,0,1-2.44-.72,4.32,4.32,0,0,1-3-4.31c-.1-2.11-.19-4.23-.35-6.34a9.17,9.17,0,0,0-.49-2.3,1.77,1.77,0,0,0-1.82-1.26,2.35,2.35,0,0,0-2.12,1.71,2.56,2.56,0,0,0-.08.91c.28,2.22.51,4.45.93,6.65.28,1.49-.15,2.72-1.5,3a8.53,8.53,0,0,1-8.09-2.07,5.28,5.28,0,0,1-1.79-4.05,41,41,0,0,1,2-13.1,2.4,2.4,0,0,0-1.51-3.17,1.21,1.21,0,0,0-1,.14,6.58,6.58,0,0,0-1.43,1.6,5.42,5.42,0,0,0-.7,2.06c-.42,3.43-1.41,6.8-1.19,10.31A7.72,7.72,0,0,1,151,237a2.71,2.71,0,0,1-3.5,2c-1.13-.26-2.22-.64-3.33-1-1.57-.44-2.52-1.66-3.5-2.82a2,2,0,0,1-.31-1.36,78.64,78.64,0,0,1,1.39-9.37c1-3.88,2.44-7.64,3.72-11.44a6.6,6.6,0,0,1,.69-1.06,2.37,2.37,0,0,0-.65-2.93,1.56,1.56,0,0,0-2.34.51c-.36.62-.64,1.31-.94,2-2.65,5.85-4.74,11.86-5.1,18.35a7.51,7.51,0,0,1-.66,2.43,2.56,2.56,0,0,1-3.63,1.32,23,23,0,0,1-3.35-1.83,4.3,4.3,0,0,1-2.07-4.18c1-7.77,2.89-15.28,6.81-22.18,1.74-3.06,3.37-6.19,5-9.3a2,2,0,0,0-.37-2.78,2.16,2.16,0,0,0-3,.85,66.34,66.34,0,0,0-6.41,11.65,89.6,89.6,0,0,0-5,16.58,4.52,4.52,0,0,0-.11,1.27,3.36,3.36,0,0,1-5.45,2.83c-.94-.57-1.78-1.32-2.76-1.79-2.07-1-2.73-3.74-2.24-5.48,2.07-7.32,4.35-14.56,8.18-21.21,2.73-4.76,5.49-9.48,9.39-13.42a34.75,34.75,0,0,0,3.08-3.84c1-1.34,1-2.24.24-2.9-1-.81-2-.67-3.18.52a69.46,69.46,0,0,0-11.28,14.75A93.21,93.21,0,0,0,111.6,214a12.82,12.82,0,0,1-1.27,2.8,2.15,2.15,0,0,1-3,.91,30.09,30.09,0,0,1-5-3.31c-1.69-1.45-1.77-3.53-1.22-5.57a79.72,79.72,0,0,1,5.34-14.15,87.34,87.34,0,0,1,23.4-29.52,31.46,31.46,0,0,1,3.61-2.46c.74-.44,1.27-.9,1.22-1.84a2.44,2.44,0,0,0-1.35-2,1.71,1.71,0,0,0-1.5.18c-4.39,3.46-9,6.69-12.8,10.83a86.4,86.4,0,0,0-17.32,26.62c-.85,2.14-1.67,4.29-2.52,6.43a16.48,16.48,0,0,1-.79,1.64,3.08,3.08,0,0,1-5.06.77,50.13,50.13,0,0,1-4.88-6.77,5,5,0,0,1,0-4.43,11,11,0,0,1,1.08-2.1c4.31-6.49,8.53-13,13-19.4,5.83-8.3,13.25-15.06,21.4-21,1.86-1.35,3.93-2.41,5.91-3.61,2.14-1.28,4.31-2.52,6.4-3.87a1.89,1.89,0,0,0,.34-3.22,1.71,1.71,0,0,0-1.45-.3c-1.68.67-3.33,1.43-4.94,2.25a79,79,0,0,0-18.61,13.7A126.11,126.11,0,0,0,95.47,175.6c-2.82,4-5.53,8.15-8.22,12.28a4.11,4.11,0,0,1-3.3,2,1.82,1.82,0,0,1-2-1.2c-.86-1.95-1.82-3.85-2.75-5.76a5.48,5.48,0,0,1,0-5.27c7.17-12.7,15.35-24.57,27.17-33.5A85.35,85.35,0,0,1,134.23,130c1.62-.47,3.31-.71,5-1.1a3.36,3.36,0,0,0,1.3-.56c1-.75,1.23-1.47.85-2.34a1.91,1.91,0,0,0-2.27-1.09c-.84.13-1.67.33-2.5.52A80,80,0,0,0,94.16,150a145.24,145.24,0,0,0-13.5,17,4.26,4.26,0,0,1-1.3,1.45,2.09,2.09,0,0,1-3.15-1.59c-.44-2.33-.77-4.68-1-7-.21-1.69-.23-3.4-.36-5.1A5.79,5.79,0,0,1,76.43,150c9.47-9.72,19.64-18.57,31.43-25.39A77.71,77.71,0,0,1,122.48,118a130.39,130.39,0,0,1,17.19-3.94,45.85,45.85,0,0,1,6.54-.32,10.15,10.15,0,0,1,1.1.07,1.87,1.87,0,0,0,1.84-1.24,1.59,1.59,0,0,0-.43-2,4.6,4.6,0,0,0-1.36-.84,38.47,38.47,0,0,1-15.3-9.61,38.62,38.62,0,0,1-3.4-4.49,2.49,2.49,0,0,1-.26-.48c-.87-1.84-.32-3,1.7-3.18,3.81-.4,7.62-.81,11.44-1,2.67-.16,5.35,0,8,0ZM188,93.52a12.36,12.36,0,0,0,.69,1.85,6.87,6.87,0,0,0,4,3.24c2.64.86,5.49,1,8,2.37a2,2,0,0,0,1.78-.41,1.72,1.72,0,0,0,.45-2.15,11.86,11.86,0,0,1-.81-2,6,6,0,0,0-3.22-3.75,19.67,19.67,0,0,0-2.15-1,11.29,11.29,0,0,0-7.48.15A1.65,1.65,0,0,0,188,93.52Z" transform="translate(-74.53 -73.5)"/><path class="cls-1" d="M205.39,202.24c-1.9-3.2-.62-6.08,3-6.67a36.66,36.66,0,0,1,4.69-.43,3,3,0,0,1,3,2.24,2.6,2.6,0,0,1-1.36,3.23,10.73,10.73,0,0,0-2.33,1.74c-1.3,1.29-1.14,2.81.13,4.12,3.7,3.8,5.34,8.27,3.79,13.5a10.41,10.41,0,0,1-12.89,6.84c-4.52-1.2-9.15-1.95-13.7-3-3.37-.79-6.74-1.63-10-2.68-5.59-1.78-10.08-5.35-14.18-9.39a45,45,0,0,1-13.13-24.34,19.78,19.78,0,0,1-.37-2.53c-.37-7.65-1-15.35,1.77-22.75a73.62,73.62,0,0,1,9.05-17A38.35,38.35,0,0,1,168,139.5a60.47,60.47,0,0,1,30.16-15c1.67-.33,3.37-.48,5-.79a4.71,4.71,0,0,1,4.81,1.91c.27.33.52.68.8,1,.89,1,1.57,1,2.35-.11.21-.29.36-.64.59-.92a2.73,2.73,0,0,1,3.52-.93,2.57,2.57,0,0,1,1.85,3c-.22,1.92-.64,3.82-.92,5.74a4.91,4.91,0,0,0,.06,2,1.61,1.61,0,0,0,2.64.61,32.54,32.54,0,0,0,3.59-4.1c1-1.42,1.8-3,2.72-4.53.37-.62.84-1.19,1.27-1.77.91-1.22,2.14-1.23,3.44-.88a2,2,0,0,1,1.71,2.25,14.39,14.39,0,0,1-.78,4.08,17.37,17.37,0,0,0-1.13,7.81c.61,10.26,1,20.53,1.37,30.81.13,3.28,0,6.57.2,9.85a4.39,4.39,0,0,1-4.77,4.51c-1.38-.24-2.79-.26-4.18-.38a3.1,3.1,0,0,0-2.49.91c-.89.85-1,1.36-.42,2.73a3.39,3.39,0,0,1-.74,3.53,3.11,3.11,0,0,1-3.53.7c-2.43-1.36-5-1.3-7.62-1a19.46,19.46,0,0,0-9.49,4,10.3,10.3,0,0,0-3.91,6.4c-.71,3.26,1.37,5.31,4.06,6.18a5.23,5.23,0,0,0,6.58-3.09C205,203.38,205.17,202.86,205.39,202.24Zm20.2-36.54h.14q-.31-6.27-.62-12.53a5,5,0,0,0-.06-.54,2.37,2.37,0,0,0-2-2.28,2.53,2.53,0,0,0-2.94,1.3c-1.11,2.19-2.63,4.18-2.52,6.9.08,1.84-1.59,2.87-3.42,2.6a4.06,4.06,0,0,1-3-2.16,6.27,6.27,0,0,0-4-2.89,15,15,0,0,1-4.1-1.24,3.06,3.06,0,0,1-1.65-2.78,2.46,2.46,0,0,1,1.53-2.64,33.89,33.89,0,0,1,5.93-2.25,78.41,78.41,0,0,1,8.67-1.11,13.82,13.82,0,0,0,4.74-1.22,4,4,0,0,0,2.17-3.13,1.93,1.93,0,0,0-2.24-2.19,25,25,0,0,0-2.85.51c-1.77.4-3.51,1-5.29,1.22-3.24.45-6.49.83-9.76,1.05a7,7,0,0,0-5.91,3.95c-5.08,8.68-11.62,15.86-20.8,20.38-5,2.46-5.8,10.1-2.38,13.12a23.29,23.29,0,0,1,3.36,3.59c1.5,2,2.58,4.16,1.3,6.89s-.38,5.45,2.1,7.67a2.69,2.69,0,0,0,2.33.69c2.59-.35,3.94-2,4.6-4.36a18.17,18.17,0,0,1,2.72-5.51,23.76,23.76,0,0,1,13.52-9.65,20.71,20.71,0,0,1,9-.58,44.73,44.73,0,0,0,8.35.33c2.27-.06,3.35-1.39,3.44-3.67,0-.72,0-1.46,0-2.19C225.85,170.55,225.72,168.12,225.59,165.7Z" transform="translate(-74.53 -73.5)"/><path class="cls-1" d="M74.53,138.42c.53-3.73,1-7.46,1.61-11.18a5.39,5.39,0,0,1,2.71-3.9,160.75,160.75,0,0,1,31.75-15A114.06,114.06,0,0,1,127,104.2a5.81,5.81,0,0,1,5.75,2,4.31,4.31,0,0,0,1.44,1.06c.89.39,1.47,1,1.27,1.94a2.36,2.36,0,0,1-1.78,2.09c-2,.44-4,.88-6,1.41a83.07,83.07,0,0,0-23.12,10.17,200.29,200.29,0,0,0-24.16,17.92c-.42.36-.82.73-1.25,1.08a2.5,2.5,0,0,1-3,.54,2.37,2.37,0,0,1-1.43-2.66,7.69,7.69,0,0,0,0-1.27Z" transform="translate(-74.53 -73.5)"/><path class="cls-1" d="M120.06,93.39h1.27a2.13,2.13,0,0,1,2,1.3,9,9,0,0,0,1.54,2.22,2.85,2.85,0,0,1,1,3.11,3.18,3.18,0,0,1-2.56,2c-3.61.81-7.25,1.54-10.81,2.57a142.29,142.29,0,0,0-22.26,9.06c-1.74.85-3.42,1.83-5.13,2.75-.21.12-.42.24-.64.35a2.79,2.79,0,0,1-3.52-.36,2.89,2.89,0,0,1-.6-3.36c1.18-2.86,2.47-5.68,3.82-8.46.46-1,.64-2,1.61-2.8a7.09,7.09,0,0,1,2.65-1.48c7.38-1.8,14.73-3.68,22.13-5.4,3.12-.73,6.33-1.14,9.5-1.69Z" transform="translate(-74.53 -73.5)"/></svg>