<svg id="Слой_1" data-name="Слой 1" xmlns="http://www.w3.org/2000/svg" viewBox="0 0 475.6 84.49"><defs><style>.cls-1{fill:#fff;}</style></defs><title>sparta_logo_text</title><path class="cls-1" d="M666.3,195.21c-4.44-9.28-8.84-18.5-13.25-27.75h-5.2V195.3h-26.3c-.58-2.2-.78-76.7-.2-81.21.82-.06,1.7-.19,2.57-.19,10.53,0,21.06,0,31.59,0A49.89,49.89,0,0,1,673.36,117c14.53,5.59,20.65,21.64,13.59,35.58a22.35,22.35,0,0,1-7.87,8.67c-.84.55-1.7,1.08-2.88,1.82q9.15,15.93,18.24,31.79C692.2,195.63,671.34,195.87,666.3,195.21Zm-18.3-48a28.29,28.29,0,0,0,10.31,0c3.08-.88,4.69-3.11,4.73-6.55s-1.47-5.81-4.53-6.69c-3.43-1-6.91-.69-10.51-.42Z" transform="translate(-377.97 -112.47)"/><path class="cls-1" d="M556.31,183.18l-3.15,12.16H525l25.36-81.25h35.25l25.23,80.79c-2.29.74-24.21.93-28.12.27-1-3.88-2.11-7.85-3.22-12Zm17.92-20.74c-2-7.88-4-15.54-6-23.19l-.63,0-5.93,23.16Z" transform="translate(-377.97 -112.47)"/><path class="cls-1" d="M853.56,195.33H825.37c-1.09-4-2.17-8-3.29-12.13H799c-1,3.89-2.13,7.94-3.25,12.12H768.15c0-2.23,23.21-77.32,25.12-81.33h34.89C836.59,141,845,168,853.56,195.33Zm-37-32.9c-.4-4.53-5-21.36-6.36-22.92-1.84,7.69-4.11,15.14-5.72,22.92Z" transform="translate(-377.97 -112.47)"/><path class="cls-1" d="M525.62,140.24c-.47-11.37-6-19.24-16.65-23.4a45.07,45.07,0,0,0-16.33-2.94c-10.62,0-21.24,0-31.87,0-.77,0-1.55.13-2.39.21v81c3.76.66,24.19.5,26.56-.24v-24.5c3.43,0,6.45.08,9.46,0a42.41,42.41,0,0,0,16.19-3.53c8.05-3.62,13.11-9.67,14.54-18.46A39.69,39.69,0,0,0,525.62,140.24Zm-27.23,4.1a5.82,5.82,0,0,1-4.94,5.41c-2.63.48-5.34.48-8.34.72V134.35a20,20,0,0,1,8.77.31,5.34,5.34,0,0,1,1.89.91C498.85,137.82,498.8,141.07,498.39,144.34Z" transform="translate(-377.97 -112.47)"/><path class="cls-1" d="M378,181.74l17.57-12.1c1,.83,1.77,1.56,2.61,2.26,4.2,3.49,8.92,5.56,14.49,5.15a11.81,11.81,0,0,0,3.81-.87,4,4,0,0,0,.91-7.07,14.12,14.12,0,0,0-3.72-2c-3.31-1.24-6.66-2.38-10-3.48A54.43,54.43,0,0,1,391,157.79c-14.08-9-14.41-33.76,3.3-41.88a40.3,40.3,0,0,1,16.81-3.44,45,45,0,0,1,20.59,4.4,33.35,33.35,0,0,1,11.49,9.22l-16.56,11.55c-2.82-2.7-5.8-4.83-9.58-5.17a22.77,22.77,0,0,0-6,.37,3.73,3.73,0,0,0-3.1,3,3.94,3.94,0,0,0,1.68,4.27,19.79,19.79,0,0,0,4.23,2.32c3.5,1.33,7.11,2.36,10.59,3.73A102.81,102.81,0,0,1,435,150.83c15.21,8.12,14.4,30.45,1.86,39.24a36.58,36.58,0,0,1-15.07,6.06,51.46,51.46,0,0,1-26.33-2A39.35,39.35,0,0,1,378,181.74Z" transform="translate(-377.97 -112.47)"/><path class="cls-1" d="M747.47,195.31H720.78V135.26c-3.77,0-7.27-.06-10.77-.07H699.45c-.68-2.28-.83-17.25-.22-21.1h69.86V135c-3.44.37-7,.11-10.45.16s-7.07,0-11,0c-.31,4.05-.1,8-.14,11.85,0,4.05,0,8.11,0,12.16v36.11Z" transform="translate(-377.97 -112.47)"/></svg>